<mxfile host="65bd71144e" modified="2020-10-17T03:48:09.578Z" agent="5.0 (Windows NT 10.0; Win64; x64) AppleWebKit/537.36 (KHTML, like Gecko) Code/1.50.1 Chrome/83.0.4103.122 Electron/9.2.1 Safari/537.36" version="13.6.5" etag="Mtc-ty3ghdSsieNLKsRO">
    <diagram id="ZDc8EQK05pyt_Cn2uagj" name="Página-1">
        <mxGraphModel dx="1118" dy="792" grid="1" gridSize="10" guides="1" tooltips="1" connect="1" arrows="1" fold="1" page="1" pageScale="1" pageWidth="850" pageHeight="1100" math="0" shadow="0">
            <root>
                <mxCell id="0"/>
                <mxCell id="1" parent="0"/>
                <mxCell id="2" value="" style="shape=curlyBracket;whiteSpace=wrap;html=1;rounded=1;" vertex="1" parent="1">
                    <mxGeometry x="160" y="120" width="20" height="820" as="geometry"/>
                </mxCell>
                <mxCell id="3" value="&lt;font style=&quot;font-size: 28px&quot;&gt;&lt;b&gt;Actuadores en Robotica&lt;/b&gt;&lt;/font&gt;" style="text;html=1;strokeColor=none;fillColor=none;align=center;verticalAlign=middle;whiteSpace=wrap;rounded=0;fontSize=28;" vertex="1" parent="1">
                    <mxGeometry x="40" y="518" width="90" height="65" as="geometry"/>
                </mxCell>
                <mxCell id="4" value="&lt;font style=&quot;font-size: 24px&quot;&gt;&lt;b&gt;Hidráulicos&lt;/b&gt;&lt;/font&gt;" style="text;html=1;strokeColor=none;fillColor=none;align=center;verticalAlign=middle;whiteSpace=wrap;rounded=0;" vertex="1" parent="1">
                    <mxGeometry x="243.75" y="220" width="40" height="20" as="geometry"/>
                </mxCell>
                <mxCell id="5" value="&lt;font style=&quot;font-size: 24px&quot;&gt;&lt;b&gt;Neumáticos&lt;/b&gt;&lt;/font&gt;" style="text;html=1;strokeColor=none;fillColor=none;align=center;verticalAlign=middle;whiteSpace=wrap;rounded=0;" vertex="1" parent="1">
                    <mxGeometry x="250" y="540" width="40" height="20" as="geometry"/>
                </mxCell>
                <mxCell id="6" value="&lt;font style=&quot;font-size: 24px&quot;&gt;&lt;b&gt;Eléctricos&lt;/b&gt;&lt;/font&gt;" style="text;html=1;strokeColor=none;fillColor=none;align=center;verticalAlign=middle;whiteSpace=wrap;rounded=0;" vertex="1" parent="1">
                    <mxGeometry x="230" y="810" width="40" height="20" as="geometry"/>
                </mxCell>
                <mxCell id="7" value="" style="shape=curlyBracket;whiteSpace=wrap;html=1;rounded=1;" vertex="1" parent="1">
                    <mxGeometry x="363.75" y="135" width="20" height="200" as="geometry"/>
                </mxCell>
                <mxCell id="8" value="" style="shape=curlyBracket;whiteSpace=wrap;html=1;rounded=1;" vertex="1" parent="1">
                    <mxGeometry x="370" y="443.9" width="20" height="220" as="geometry"/>
                </mxCell>
                <mxCell id="9" value="" style="shape=curlyBracket;whiteSpace=wrap;html=1;rounded=1;" vertex="1" parent="1">
                    <mxGeometry x="370" y="730" width="20" height="180" as="geometry"/>
                </mxCell>
                <mxCell id="10" value="&lt;font style=&quot;font-size: 18px&quot;&gt;&lt;b&gt;Funcionamiento&lt;/b&gt;&lt;/font&gt;" style="text;html=1;strokeColor=none;fillColor=none;align=center;verticalAlign=middle;whiteSpace=wrap;rounded=0;" vertex="1" parent="1">
                    <mxGeometry x="425" y="135" width="90" height="30" as="geometry"/>
                </mxCell>
                <mxCell id="11" value="&lt;div style=&quot;text-align: justify&quot;&gt;&lt;span&gt;&lt;font style=&quot;font-size: 14px&quot;&gt;Obtienen su energía de un fluido a presión&lt;/font&gt;&lt;/span&gt;&lt;/div&gt;" style="text;html=1;strokeColor=none;fillColor=none;align=center;verticalAlign=middle;whiteSpace=wrap;rounded=0;" vertex="1" parent="1">
                    <mxGeometry x="581.25" y="130" width="140" height="40" as="geometry"/>
                </mxCell>
                <mxCell id="13" value="" style="shape=curlyBracket;whiteSpace=wrap;html=1;rounded=1;size=0.5;" vertex="1" parent="1">
                    <mxGeometry x="548.75" y="130" width="20" height="40" as="geometry"/>
                </mxCell>
                <mxCell id="14" value="&lt;font style=&quot;font-size: 18px&quot;&gt;&lt;b&gt;Tipos&lt;/b&gt;&lt;/font&gt;" style="text;html=1;strokeColor=none;fillColor=none;align=center;verticalAlign=middle;whiteSpace=wrap;rounded=0;" vertex="1" parent="1">
                    <mxGeometry x="405" y="225" width="40" height="20" as="geometry"/>
                </mxCell>
                <mxCell id="15" value="" style="shape=curlyBracket;whiteSpace=wrap;html=1;rounded=1;size=0.5;" vertex="1" parent="1">
                    <mxGeometry x="548.75" y="210" width="20" height="50" as="geometry"/>
                </mxCell>
                <mxCell id="16" value="&lt;div style=&quot;text-align: justify&quot;&gt;&lt;font style=&quot;font-size: 14px&quot;&gt;Cilindros Hidráulicos&lt;/font&gt;&lt;/div&gt;&lt;div style=&quot;text-align: justify&quot;&gt;&lt;font style=&quot;font-size: 14px&quot;&gt;Motores Hidráulicos&lt;/font&gt;&lt;/div&gt;&lt;div style=&quot;text-align: justify&quot;&gt;&lt;font style=&quot;font-size: 14px&quot;&gt;Válvulas hidráulicas&lt;/font&gt;&lt;/div&gt;" style="text;html=1;strokeColor=none;fillColor=none;align=center;verticalAlign=middle;whiteSpace=wrap;rounded=0;" vertex="1" parent="1">
                    <mxGeometry x="581.25" y="205" width="135" height="60" as="geometry"/>
                </mxCell>
                <mxCell id="17" value="&lt;font style=&quot;font-size: 18px&quot;&gt;&lt;b&gt;Funcionamiento&lt;/b&gt;&lt;/font&gt;" style="text;html=1;strokeColor=none;fillColor=none;align=center;verticalAlign=middle;whiteSpace=wrap;rounded=0;" vertex="1" parent="1">
                    <mxGeometry x="425" y="444.71999999999997" width="90" height="30" as="geometry"/>
                </mxCell>
                <mxCell id="18" value="" style="shape=curlyBracket;whiteSpace=wrap;html=1;rounded=1;size=0.5;" vertex="1" parent="1">
                    <mxGeometry x="557.5" y="422.09" width="20" height="74.63" as="geometry"/>
                </mxCell>
                <mxCell id="19" value="&lt;font style=&quot;font-size: 18px&quot;&gt;&lt;b&gt;Tipos&lt;/b&gt;&lt;/font&gt;" style="text;html=1;strokeColor=none;fillColor=none;align=center;verticalAlign=middle;whiteSpace=wrap;rounded=0;" vertex="1" parent="1">
                    <mxGeometry x="410" y="543.9" width="40" height="20" as="geometry"/>
                </mxCell>
                <mxCell id="20" value="" style="shape=curlyBracket;whiteSpace=wrap;html=1;rounded=1;" vertex="1" parent="1">
                    <mxGeometry x="561.25" y="531.4" width="20" height="45" as="geometry"/>
                </mxCell>
                <mxCell id="21" value="&lt;font style=&quot;font-size: 18px&quot;&gt;&lt;b&gt;Funcionamiento&lt;/b&gt;&lt;/font&gt;" style="text;html=1;strokeColor=none;fillColor=none;align=center;verticalAlign=middle;whiteSpace=wrap;rounded=0;" vertex="1" parent="1">
                    <mxGeometry x="425" y="730" width="90" height="30" as="geometry"/>
                </mxCell>
                <mxCell id="22" value="" style="shape=curlyBracket;whiteSpace=wrap;html=1;rounded=1;size=0.5;" vertex="1" parent="1">
                    <mxGeometry x="561.25" y="720" width="20" height="45" as="geometry"/>
                </mxCell>
                <mxCell id="23" value="&lt;font style=&quot;font-size: 18px&quot;&gt;&lt;b&gt;Tipos&lt;/b&gt;&lt;/font&gt;" style="text;html=1;strokeColor=none;fillColor=none;align=center;verticalAlign=middle;whiteSpace=wrap;rounded=0;" vertex="1" parent="1">
                    <mxGeometry x="405" y="805" width="40" height="20" as="geometry"/>
                </mxCell>
                <mxCell id="24" value="" style="shape=curlyBracket;whiteSpace=wrap;html=1;rounded=1;" vertex="1" parent="1">
                    <mxGeometry x="561.25" y="790" width="20" height="50" as="geometry"/>
                </mxCell>
                <mxCell id="25" value="&lt;div style=&quot;text-align: justify&quot;&gt;&lt;span&gt;&lt;font style=&quot;font-size: 14px&quot;&gt;Transforman la energía acumulada en el aire comprimido en trabajo mecánico de movimientos circular o movimiento rectilíneo&lt;/font&gt;&lt;/span&gt;&lt;/div&gt;" style="text;html=1;strokeColor=none;fillColor=none;align=center;verticalAlign=middle;whiteSpace=wrap;rounded=0;" vertex="1" parent="1">
                    <mxGeometry x="581.25" y="444.71999999999997" width="252.5" height="24.5" as="geometry"/>
                </mxCell>
                <mxCell id="27" value="&lt;div&gt;&lt;font style=&quot;font-size: 14px&quot;&gt;Cilindros neumáticos&lt;/font&gt;&lt;/div&gt;&lt;div&gt;&lt;span&gt;&lt;font style=&quot;font-size: 14px&quot;&gt;Motores neumáticos&lt;/font&gt;&lt;/span&gt;&lt;br&gt;&lt;/div&gt;" style="text;html=1;strokeColor=none;fillColor=none;align=center;verticalAlign=middle;whiteSpace=wrap;rounded=0;" vertex="1" parent="1">
                    <mxGeometry x="555" y="533.9" width="190" height="35" as="geometry"/>
                </mxCell>
                <mxCell id="28" value="&lt;div style=&quot;text-align: justify&quot;&gt;&lt;span style=&quot;font-size: 14px&quot;&gt;Transforman la energía eléctrica en energía mecánica rotacional.&lt;/span&gt;&lt;/div&gt;" style="text;html=1;strokeColor=none;fillColor=none;align=center;verticalAlign=middle;whiteSpace=wrap;rounded=0;" vertex="1" parent="1">
                    <mxGeometry x="587.5" y="730" width="205" height="20" as="geometry"/>
                </mxCell>
                <mxCell id="29" value="&lt;div style=&quot;text-align: justify&quot;&gt;&lt;font style=&quot;font-size: 14px&quot;&gt;Motores de corriente continua&lt;/font&gt;&lt;/div&gt;&lt;div style=&quot;text-align: justify&quot;&gt;&lt;font style=&quot;font-size: 14px&quot;&gt;Motores de corriente alterna&lt;/font&gt;&lt;/div&gt;&lt;div style=&quot;text-align: justify&quot;&gt;&lt;font style=&quot;font-size: 14px&quot;&gt;Motores de paso a paso&lt;/font&gt;&lt;/div&gt;" style="text;html=1;strokeColor=none;fillColor=none;align=center;verticalAlign=middle;whiteSpace=wrap;rounded=0;" vertex="1" parent="1">
                    <mxGeometry x="575" y="785" width="220" height="60" as="geometry"/>
                </mxCell>
                <mxCell id="30" value="&lt;div style=&quot;text-align: justify&quot;&gt;&lt;font style=&quot;font-size: 14px&quot;&gt;Rápidos&lt;/font&gt;&lt;/div&gt;&lt;div style=&quot;text-align: justify&quot;&gt;&lt;font style=&quot;font-size: 14px&quot;&gt;Alta capacidad de carga&lt;/font&gt;&lt;/div&gt;&lt;div style=&quot;text-align: justify&quot;&gt;&lt;font style=&quot;font-size: 14px&quot;&gt;Presentan estabilidad frente a cargas estáticas&lt;/font&gt;&lt;/div&gt;" style="text;html=1;strokeColor=none;fillColor=none;align=center;verticalAlign=middle;whiteSpace=wrap;rounded=0;" vertex="1" parent="1">
                    <mxGeometry x="581.25" y="285" width="252.5" height="80" as="geometry"/>
                </mxCell>
                <mxCell id="32" value="&lt;font style=&quot;font-size: 18px&quot;&gt;&lt;b&gt;Características&lt;/b&gt;&lt;/font&gt;" style="text;html=1;align=center;verticalAlign=middle;resizable=0;points=[];autosize=1;" vertex="1" parent="1">
                    <mxGeometry x="400" y="310" width="140" height="20" as="geometry"/>
                </mxCell>
                <mxCell id="33" value="&lt;font style=&quot;font-size: 18px&quot;&gt;&lt;b&gt;Características&lt;/b&gt;&lt;/font&gt;" style="text;html=1;align=center;verticalAlign=middle;resizable=0;points=[];autosize=1;" vertex="1" parent="1">
                    <mxGeometry x="405" y="633.9" width="140" height="20" as="geometry"/>
                </mxCell>
                <mxCell id="34" value="&lt;font style=&quot;font-size: 18px&quot;&gt;&lt;b&gt;Características&lt;/b&gt;&lt;/font&gt;" style="text;html=1;align=center;verticalAlign=middle;resizable=0;points=[];autosize=1;" vertex="1" parent="1">
                    <mxGeometry x="400" y="887.5" width="140" height="20" as="geometry"/>
                </mxCell>
                <mxCell id="35" value="" style="shape=curlyBracket;whiteSpace=wrap;html=1;rounded=1;" vertex="1" parent="1">
                    <mxGeometry x="551.25" y="285" width="20" height="70" as="geometry"/>
                </mxCell>
                <mxCell id="36" value="" style="shape=curlyBracket;whiteSpace=wrap;html=1;rounded=1;" vertex="1" parent="1">
                    <mxGeometry x="561.25" y="610.15" width="20" height="67.5" as="geometry"/>
                </mxCell>
                <mxCell id="37" value="" style="shape=curlyBracket;whiteSpace=wrap;html=1;rounded=1;" vertex="1" parent="1">
                    <mxGeometry x="561.25" y="865" width="20" height="65" as="geometry"/>
                </mxCell>
                <mxCell id="38" value="&lt;div style=&quot;text-align: justify&quot;&gt;&lt;font style=&quot;font-size: 14px&quot;&gt;Bajo costo&lt;/font&gt;&lt;/div&gt;&lt;div style=&quot;text-align: justify&quot;&gt;&lt;font style=&quot;font-size: 14px&quot;&gt;Rapidez&lt;/font&gt;&lt;/div&gt;&lt;div style=&quot;text-align: justify&quot;&gt;&lt;font style=&quot;font-size: 14px&quot;&gt;Sencillos&lt;/font&gt;&lt;/div&gt;&lt;div style=&quot;text-align: justify&quot;&gt;&lt;font style=&quot;font-size: 14px&quot;&gt;Robustos&lt;/font&gt;&lt;/div&gt;" style="text;html=1;align=center;verticalAlign=middle;resizable=0;points=[];autosize=1;" vertex="1" parent="1">
                    <mxGeometry x="581.25" y="608.9" width="80" height="70" as="geometry"/>
                </mxCell>
                <mxCell id="39" value="&lt;div style=&quot;text-align: justify&quot;&gt;&lt;font style=&quot;font-size: 14px&quot;&gt;Precisos y fiables&lt;/font&gt;&lt;/div&gt;&lt;div style=&quot;text-align: justify&quot;&gt;&lt;font style=&quot;font-size: 14px&quot;&gt;Silenciosos&lt;/font&gt;&lt;/div&gt;&lt;div style=&quot;text-align: justify&quot;&gt;&lt;font style=&quot;font-size: 14px&quot;&gt;Son de una fácil instalación&lt;/font&gt;&lt;/div&gt;" style="text;html=1;strokeColor=none;fillColor=none;align=center;verticalAlign=middle;whiteSpace=wrap;rounded=0;" vertex="1" parent="1">
                    <mxGeometry x="552.5" y="857.5" width="250" height="80" as="geometry"/>
                </mxCell>
            </root>
        </mxGraphModel>
    </diagram>
</mxfile>